<svg width="209" height="134" viewBox="0 0 209 134" fill="none" xmlns="http://www.w3.org/2000/svg">
<rect x="102.75" y="47" width="123" height="19" rx="3" transform="rotate(30.8733 102.75 47)" fill="#4A0000"/>
<rect x="48" y="75.2052" width="93.7378" height="31" rx="3" transform="rotate(-53.1357 48 75.2052)" fill="#D9D9D9"/>
<path d="M15.9773 127L8.65909 117.341H7.38636V127H1.76136V103.727H7.38636V112.761H8.28409L15.4886 103.727H22.5227L13.5568 114.716L22.9886 127H15.9773ZM27.1591 133.545C26.4924 133.545 25.8636 133.492 25.2727 133.386C24.6818 133.288 24.1742 133.155 23.75 132.989L24.9773 128.955C25.5227 129.136 26.0152 129.242 26.4545 129.273C26.9015 129.303 27.2841 129.231 27.6023 129.057C27.928 128.89 28.178 128.591 28.3523 128.159L28.5682 127.636L22.3636 109.545H28.1818L31.3977 122H31.5795L34.8409 109.545H40.6932L34.1136 128.67C33.7955 129.625 33.3447 130.466 32.7614 131.193C32.1856 131.928 31.4394 132.504 30.5227 132.92C29.6136 133.337 28.4924 133.545 27.1591 133.545ZM42.8239 127V109.545H50.358C52.608 109.545 54.3807 109.951 55.6761 110.761C56.9792 111.564 57.6307 112.742 57.6307 114.295C57.6307 115.197 57.2633 115.973 56.5284 116.625C55.8011 117.269 54.767 117.705 53.4261 117.932C54.608 117.992 55.589 118.227 56.3693 118.636C57.1496 119.045 57.733 119.564 58.1193 120.193C58.5057 120.822 58.6989 121.492 58.6989 122.205C58.6989 123.235 58.4223 124.106 57.8693 124.818C57.3163 125.53 56.5057 126.072 55.4375 126.443C54.3769 126.814 53.0739 127 51.5284 127H42.8239ZM47.9943 122.977H51.5284C52.1193 122.977 52.5814 122.837 52.9148 122.557C53.2557 122.277 53.4261 121.89 53.4261 121.398C53.4261 120.867 53.2557 120.451 52.9148 120.148C52.5814 119.845 52.1193 119.693 51.5284 119.693H47.9943V122.977ZM47.9943 116.682H50.5057C50.9072 116.682 51.2519 116.621 51.5398 116.5C51.8277 116.379 52.0473 116.205 52.1989 115.977C52.358 115.75 52.4375 115.477 52.4375 115.159C52.4375 114.697 52.2519 114.333 51.8807 114.068C51.517 113.803 51.0095 113.67 50.358 113.67H47.9943V116.682ZM66.3693 127.295C65.2557 127.295 64.267 127.11 63.4034 126.739C62.5473 126.36 61.8693 125.792 61.3693 125.034C60.8769 124.269 60.6307 123.311 60.6307 122.159C60.6307 121.189 60.8011 120.371 61.142 119.705C61.483 119.038 61.9527 118.496 62.5511 118.08C63.1496 117.663 63.839 117.348 64.6193 117.136C65.3996 116.917 66.233 116.769 67.1193 116.693C68.1117 116.602 68.911 116.508 69.517 116.409C70.1231 116.303 70.5625 116.155 70.8352 115.966C71.1155 115.769 71.2557 115.492 71.2557 115.136V115.08C71.2557 114.496 71.0549 114.045 70.6534 113.727C70.2519 113.409 69.7102 113.25 69.0284 113.25C68.2936 113.25 67.7027 113.409 67.2557 113.727C66.8087 114.045 66.5246 114.485 66.4034 115.045L61.2784 114.864C61.4299 113.803 61.8201 112.856 62.4489 112.023C63.0852 111.182 63.9564 110.523 65.0625 110.045C66.1761 109.561 67.5133 109.318 69.0739 109.318C70.1875 109.318 71.214 109.451 72.1534 109.716C73.0928 109.973 73.911 110.352 74.608 110.852C75.3049 111.345 75.8428 111.951 76.2216 112.67C76.608 113.39 76.8011 114.212 76.8011 115.136V127H71.5739V124.568H71.4375C71.1269 125.159 70.7292 125.659 70.2443 126.068C69.767 126.477 69.2027 126.784 68.5511 126.989C67.9072 127.193 67.1799 127.295 66.3693 127.295ZM68.0852 123.659C68.6837 123.659 69.2216 123.538 69.6989 123.295C70.1837 123.053 70.5701 122.72 70.858 122.295C71.1458 121.864 71.2898 121.364 71.2898 120.795V119.136C71.1307 119.22 70.9375 119.295 70.7102 119.364C70.4905 119.432 70.2481 119.496 69.983 119.557C69.7178 119.617 69.4451 119.67 69.1648 119.716C68.8845 119.761 68.6155 119.803 68.358 119.841C67.8352 119.924 67.3883 120.053 67.017 120.227C66.6534 120.402 66.3731 120.629 66.1761 120.909C65.9867 121.182 65.892 121.508 65.892 121.886C65.892 122.462 66.0966 122.902 66.5057 123.205C66.9223 123.508 67.4489 123.659 68.0852 123.659ZM79.3466 127L79.3125 122.716H79.8693C80.2481 122.716 80.5777 122.617 80.858 122.42C81.1383 122.223 81.3731 121.909 81.5625 121.477C81.7519 121.038 81.9034 120.473 82.017 119.784C82.1307 119.095 82.2027 118.258 82.233 117.273L82.517 109.545H96.3352V127H91.0739V113.795H87.4602L87.1875 118.818C87.1193 120.295 86.9261 121.557 86.608 122.602C86.2973 123.64 85.8731 124.481 85.3352 125.125C84.8049 125.769 84.1761 126.242 83.4489 126.545C82.7216 126.848 81.8996 127 80.983 127H79.3466ZM98.5256 132.148V122.716H99.8324C100.226 122.519 100.541 122.14 100.776 121.58C101.01 121.011 101.196 120.348 101.332 119.591C101.476 118.826 101.582 118.03 101.651 117.205C101.726 116.371 101.795 115.587 101.855 114.852L102.264 109.545H116.401V122.716H119.128V132.148H113.855V127H103.935V132.148H98.5256ZM105.241 122.716H111.219V113.682H106.901L106.81 114.852C106.704 116.731 106.537 118.307 106.31 119.58C106.082 120.852 105.726 121.898 105.241 122.716ZM126.619 127.295C125.506 127.295 124.517 127.11 123.653 126.739C122.797 126.36 122.119 125.792 121.619 125.034C121.127 124.269 120.881 123.311 120.881 122.159C120.881 121.189 121.051 120.371 121.392 119.705C121.733 119.038 122.203 118.496 122.801 118.08C123.4 117.663 124.089 117.348 124.869 117.136C125.65 116.917 126.483 116.769 127.369 116.693C128.362 116.602 129.161 116.508 129.767 116.409C130.373 116.303 130.813 116.155 131.085 115.966C131.366 115.769 131.506 115.492 131.506 115.136V115.08C131.506 114.496 131.305 114.045 130.903 113.727C130.502 113.409 129.96 113.25 129.278 113.25C128.544 113.25 127.953 113.409 127.506 113.727C127.059 114.045 126.775 114.485 126.653 115.045L121.528 114.864C121.68 113.803 122.07 112.856 122.699 112.023C123.335 111.182 124.206 110.523 125.312 110.045C126.426 109.561 127.763 109.318 129.324 109.318C130.438 109.318 131.464 109.451 132.403 109.716C133.343 109.973 134.161 110.352 134.858 110.852C135.555 111.345 136.093 111.951 136.472 112.67C136.858 113.39 137.051 114.212 137.051 115.136V127H131.824V124.568H131.688C131.377 125.159 130.979 125.659 130.494 126.068C130.017 126.477 129.453 126.784 128.801 126.989C128.157 127.193 127.43 127.295 126.619 127.295ZM128.335 123.659C128.934 123.659 129.472 123.538 129.949 123.295C130.434 123.053 130.82 122.72 131.108 122.295C131.396 121.864 131.54 121.364 131.54 120.795V119.136C131.381 119.22 131.188 119.295 130.96 119.364C130.741 119.432 130.498 119.496 130.233 119.557C129.968 119.617 129.695 119.67 129.415 119.716C129.134 119.761 128.866 119.803 128.608 119.841C128.085 119.924 127.638 120.053 127.267 120.227C126.903 120.402 126.623 120.629 126.426 120.909C126.237 121.182 126.142 121.508 126.142 121.886C126.142 122.462 126.347 122.902 126.756 123.205C127.172 123.508 127.699 123.659 128.335 123.659Z" fill="black"/>
</svg>
